<?xml version="1.0" encoding="iso-8859-1"?>
<!-- Generator: Adobe Illustrator 19.0.0, SVG Export Plug-In . SVG Version: 6.00 Build 0)  -->
<svg version="1.1" id="Capa_1" xmlns="http://www.w3.org/2000/svg" xmlns:xlink="http://www.w3.org/1999/xlink" x="0px" y="0px"
	 viewBox="0 0 512 512" style="enable-background:new 0 0 512 512;" xml:space="preserve">
<path style="fill:#268160;" d="M413.538,201.846c-51.577,0-93.538,41.961-93.538,93.538v118.154c0,8.157,6.613,14.769,14.769,14.769
	h78.769c8.157,0,14.769-6.613,14.769-14.769V216.616C428.308,208.459,421.695,201.846,413.538,201.846z"/>
<g>
	<path style="fill:#9BF18D;" d="M132.738,104.297c-5.805,2.141-9.661,7.671-9.661,13.857v295.385
		c0,8.157,6.613,14.769,14.769,14.769h78.769c8.157,0,14.769-6.613,14.769-14.769V331.81c0-81.763-29.23-161.046-82.304-223.242
		C145.065,103.86,138.539,102.157,132.738,104.297z"/>
	<path style="fill:#9BF18D;" d="M27.884,243.711c-4.532-3.022-10.359-3.303-15.161-0.733c-4.802,2.57-7.8,7.575-7.8,13.022v157.538
		c0,8.157,6.613,14.769,14.769,14.769h59.077c8.157,0,14.769-6.613,14.769-14.769v-47.152
		C93.538,316.977,68.995,271.118,27.884,243.711z"/>
</g>
<path style="fill:#45B67E;" d="M500.072,243.436c-4.354-2.691-9.792-2.935-14.369-0.647c-26.142,13.071-48.081,33.12-63.447,57.983
	c-15.366,24.863-23.487,53.452-23.487,82.679v30.087c0,8.157,6.613,14.769,14.769,14.769h78.769c8.157,0,14.769-6.613,14.769-14.769
	V256C507.077,250.881,504.427,246.127,500.072,243.436z"/>
<path style="fill:#74DC83;" d="M78.769,201.846c-8.157,0-14.769,6.613-14.769,14.769v196.923c0,8.157,6.613,14.769,14.769,14.769
	h59.077c8.157,0,14.769-6.613,14.769-14.769V275.692C152.615,234.974,119.488,201.846,78.769,201.846z"/>
<path style="fill:#45B67E;" d="M341.033,85.087c-5.191-2.431-11.316-1.639-15.719,2.029
	c-78.466,65.388-123.468,161.47-123.468,263.609v62.814c0,8.157,6.613,14.769,14.769,14.769h118.154
	c8.157,0,14.769-6.613,14.769-14.769V98.462C349.538,92.731,346.223,87.518,341.033,85.087z"/>
<path style="fill:#74DC83;" d="M256,165.568c-35.035,54.601-54.154,118.591-54.154,185.157v62.814
	c0,8.157,6.613,14.769,14.769,14.769H256V165.568z"/>
<path style="fill:#7C4233;" d="M497.231,428.308H14.769C6.613,428.308,0,421.695,0,413.539s6.613-14.769,14.769-14.769h482.462
	c8.157,0,14.769,6.613,14.769,14.769S505.387,428.308,497.231,428.308z"/>
<g>
</g>
<g>
</g>
<g>
</g>
<g>
</g>
<g>
</g>
<g>
</g>
<g>
</g>
<g>
</g>
<g>
</g>
<g>
</g>
<g>
</g>
<g>
</g>
<g>
</g>
<g>
</g>
<g>
</g>
</svg>
