<svg height="512pt" viewBox="0 0 512 512.00074" width="512pt" xmlns="http://www.w3.org/2000/svg"><path d="m355 512h-340c-8.285156 0-15-6.714844-15-15v-170c0-102.007812 82.992188-185 185-185 102.011719 0 185 82.992188 185 185v170c0 8.285156-6.714844 15-15 15zm0 0" fill="#b27861"/><path d="m185 142v370h170c8.285156 0 15-6.714844 15-15v-170c0-102.007812-82.988281-185-185-185zm0 0" fill="#9d5c4b"/><path d="m237.8125 120c-2.492188 0-4.992188-.621094-7.257812-1.871094l-20.554688-11.363281-20.554688 11.363281c-5.027343 2.777344-11.199218 2.441406-15.894531-.863281-4.699219-3.3125-7.089843-9.011719-6.167969-14.679687l4.09375-25.089844-17.210937-17.644532c-3.925781-4.023437-5.273437-9.90625-3.488281-15.234374 1.78125-5.332032 6.398437-9.21875 11.957031-10.066407l23.183594-3.542969 10.503906-22.378906c2.472656-5.265625 7.761719-8.628906 13.578125-8.628906s11.105469 3.363281 13.578125 8.628906l10.507813 22.378906 23.179687 3.542969c5.558594.847657 10.175781 4.734375 11.957031 10.066407 1.785156 5.328124.441406 11.210937-3.484375 15.234374l-17.214843 17.644532 4.09375 25.089844c.925781 5.667968-1.46875 11.367187-6.164063 14.679687-2.582031 1.8125-5.605469 2.734375-8.640625 2.734375zm0 0" fill="#ffe54e"/><path d="m106 105c-3.839844 0-7.675781-1.464844-10.605469-4.394531l-30-30c-5.859375-5.855469-5.859375-15.355469 0-21.210938 5.855469-5.859375 15.355469-5.859375 21.210938 0l30 30c5.859375 5.855469 5.859375 15.355469 0 21.210938-2.925781 2.929687-6.765625 4.394531-10.605469 4.394531zm0 0" fill="#e8edf5"/><path d="m66 145h-40c-8.285156 0-15-6.714844-15-15s6.714844-15 15-15h40c8.285156 0 15 6.714844 15 15s-6.714844 15-15 15zm0 0" fill="#e8edf5"/><path d="m240 462c-21.242188 0-41.046875-8.964844-55-24.007812-13.953125 15.042968-33.753906 24.007812-55 24.007812-41.355469 0-75-33.644531-75-75s33.644531-75 75-75c11.046875 0 21.699219 2.359375 31.667969 7.007812 6.007812 2.804688 9.464843 9.222657 8.496093 15.78125-.109374.738282-.164062 1.484376-.164062 2.210938 0 8.273438 6.730469 15 15 15s15-6.726562 15-15c0-.726562-.054688-1.472656-.164062-2.210938-.964844-6.5625 2.488281-12.976562 8.5-15.78125 9.964843-4.648437 20.621093-7.007812 31.664062-7.007812 41.355469 0 75 33.644531 75 75s-33.644531 75-75 75zm0 0" fill="#ffbeaa"/><path d="m136.011719 281.003906c-1.207031 0-2.429688-.144531-3.648438-.449218l-40-10c-8.039062-2.011719-12.925781-10.15625-10.914062-18.191407 2.007812-8.035156 10.152343-12.925781 18.1875-10.914062l40 10c8.039062 2.007812 12.925781 10.152343 10.914062 18.191406-1.703125 6.8125-7.820312 11.363281-14.539062 11.363281zm0 0" fill="#656e73"/><path d="m233.988281 281.003906c-6.722656 0-12.835937-4.550781-14.539062-11.363281-2.011719-8.039063 2.875-16.183594 10.914062-18.191406l40-10c8.03125-2.011719 16.179688 2.875 18.1875 10.914062 2.011719 8.035157-2.875 16.179688-10.914062 18.191407l-40 10c-1.21875.304687-2.441407.449218-3.648438.449218zm0 0" fill="#525c5c"/><path d="m269.222656 44.617188c-1.78125-5.332032-6.398437-9.21875-11.957031-10.066407l-23.179687-3.542969-10.507813-22.378906c-2.472656-5.265625-7.761719-8.628906-13.578125-8.628906v106.765625l20.554688 11.363281c2.265624 1.25 4.765624 1.871094 7.257812 1.871094 3.035156 0 6.058594-.921875 8.640625-2.734375 4.695313-3.3125 7.089844-9.011719 6.164063-14.679687l-4.09375-25.089844 17.214843-17.644532c3.925781-4.023437 5.269531-9.90625 3.484375-15.234374zm0 0" fill="#ffbd1c"/><path d="m509.984375 284.023438c2.589844-4.488282 2.78125-10.203126.003906-15.015626l-80-138.5625c-4.144531-7.175781-13.316406-9.632812-20.492187-5.488281-7.171875 4.140625-9.632813 13.3125-5.488282 20.488281l80 138.5625c4.140626 7.175782 13.316407 9.636719 20.488282 5.492188 2.363281-1.363281 4.214844-3.273438 5.488281-5.476562zm0 0" fill="#656e73"/><path d="m504.496094 289.5c2.363281-1.363281 4.214844-3.273438 5.488281-5.476562 2.589844-4.488282 2.78125-10.203126.003906-15.015626l-80-138.5625c-4.144531-7.175781-13.316406-9.632812-20.492187-5.488281zm0 0" fill="#525c5c"/><path d="m502.441406 105.9375-155.886718 90c-7.171876 4.140625-16.347657 1.683594-20.488282-5.492188l-45-77.941406c-4.144531-7.175781-1.6875-16.347656 5.488282-20.488281l155.886718-90c7.171875-4.144531 16.347656-1.6875 20.488282 5.488281l45 77.941406c2.78125 4.8125 2.589843 10.523438-.003907 15.011719-1.269531 2.207031-3.121093 4.117188-5.484375 5.480469zm0 0" fill="#e8edf5"/><path d="m364.5 47.011719 77.941406-45c7.171875-4.140625 16.347656-1.683594 20.488282 5.492187l45 77.941406c2.78125 4.8125 2.589843 10.523438-.003907 15.011719-1.269531 2.203125-3.125 4.113281-5.484375 5.476563l-77.941406 45zm0 0" fill="#ccd3e2"/><path d="m325.519531 69.511719 77.9375-45 60 103.921875-77.9375 45zm0 0" fill="#ff455a"/><path d="m364.488281 47.011719 38.96875-22.5 60 103.921875-38.96875 22.5zm0 0" fill="#bf0032"/><path d="m240 312c-11.042969 0-21.699219 2.359375-31.667969 7.007812-6.007812 2.804688-9.460937 9.222657-8.496093 15.78125.109374.738282.164062 1.484376.164062 2.210938 0 8.273438-6.730469 15-15 15v85.992188c13.953125 15.042968 33.753906 24.007812 55 24.007812 41.355469 0 75-33.644531 75-75s-33.644531-75-75-75zm0 0" fill="#faa68f"/><path d="m185 382c-24.8125 0-45-20.1875-45-45s20.1875-45 45-45 45 20.1875 45 45-20.1875 45-45 45zm0 0" fill="#656e73"/><path d="m185 292v90c24.8125 0 45-20.1875 45-45s-20.1875-45-45-45zm0 0" fill="#525c5c"/></svg>